<?xml version="1.0" standalone="no"?>
<!DOCTYPE svg PUBLIC "-//W3C//DTD SVG 20010904//EN"
 "http://www.w3.org/TR/2001/REC-SVG-20010904/DTD/svg10.dtd">
<svg version="1.0" xmlns="http://www.w3.org/2000/svg"
 width="300.000000pt" height="238.000000pt" viewBox="0 0 300.000000 238.000000"
 preserveAspectRatio="xMidYMid meet">
<metadata>
Created by potrace 1.16, written by Peter Selinger 2001-2019
</metadata>
<g transform="translate(0.000000,238.000000) scale(0.100000,-0.100000)"
fill="#000000" stroke="none">
<path d="M1416 2357 c-31 -10 -55 -21 -53 -23 2 -2 30 5 62 16 32 11 63 20 69
19 6 0 -14 -9 -44 -20 -60 -22 -146 -35 -120 -19 13 8 13 10 -2 10 -9 0 -25
-10 -35 -23 -12 -15 -40 -29 -80 -39 -35 -9 -60 -12 -57 -7 3 5 -2 9 -10 9 -9
0 -16 -6 -16 -14 0 -8 -5 -18 -12 -22 -7 -5 -8 -3 -3 6 5 9 4 11 -4 6 -6 -4
-9 -11 -6 -16 3 -5 -3 -13 -12 -19 -10 -5 -17 -13 -15 -18 1 -4 -2 -8 -7 -8
-16 0 -91 -75 -91 -92 -1 -22 -27 -58 -43 -58 -7 0 -11 -8 -9 -17 1 -9 -3 -20
-9 -24 -8 -5 -9 -3 -4 6 5 8 4 11 -3 6 -6 -4 -9 -13 -6 -20 3 -8 0 -17 -7 -22
-8 -5 -10 -3 -4 6 5 8 4 11 -3 6 -6 -4 -9 -13 -6 -20 3 -8 0 -17 -7 -22 -8 -5
-10 -3 -4 7 5 8 4 11 -1 6 -5 -5 -9 -12 -10 -15 0 -4 -5 -50 -9 -102 -7 -77
-10 -88 -16 -60 -4 20 -5 -2 -3 -50 2 -54 0 -72 -5 -50 -5 23 -7 0 -7 -70 1
-58 5 -108 11 -112 6 -5 4 -8 -4 -8 -11 0 -10 -5 4 -20 10 -11 22 -17 28 -13
6 4 8 0 4 -10 -7 -17 15 -41 28 -29 5 4 5 -1 2 -10 -6 -16 15 -43 25 -33 3 3
5 -9 6 -26 0 -17 4 -34 8 -38 4 -3 5 6 2 21 -3 15 -1 25 3 22 5 -3 9 -18 9
-35 0 -20 5 -29 16 -29 8 0 12 5 9 10 -3 6 -4 10 -2 10 10 0 68 -91 63 -99 -7
-10 18 -34 27 -25 3 3 8 -4 12 -15 3 -12 14 -21 23 -22 14 0 13 -2 -3 -8 -18
-7 -18 -8 5 -13 14 -3 34 -9 45 -12 13 -5 12 -2 -5 8 -43 26 -17 18 157 -50
155 -61 215 -88 153 -69 -48 15 -55 15 -25 1 41 -19 85 -30 66 -18 -11 8 -5
13 25 21 21 6 60 17 87 25 26 8 48 12 48 10 1 -2 2 -10 3 -16 1 -17 31 -22 53
-9 15 9 13 10 -12 6 -25 -5 -27 -4 -8 4 12 5 27 18 33 28 11 17 11 17 6 0 -3
-11 -2 -15 4 -12 6 3 10 12 10 19 0 6 33 22 73 33 42 13 65 16 54 9 -16 -12
-15 -13 7 -13 19 -1 26 5 28 26 2 14 6 24 9 21 13 -10 48 32 42 48 -4 10 -2
14 2 9 13 -11 44 23 38 41 -4 10 -2 14 2 9 12 -10 45 22 39 38 -3 7 0 16 7 21
8 5 10 3 4 -7 -4 -8 1 -6 11 4 10 10 19 23 19 30 0 6 5 14 10 15 20 7 35 24
29 34 -3 5 3 20 15 32 24 25 37 133 45 361 4 128 4 131 -21 160 l-26 30 17
-30 17 -30 -21 24 c-11 13 -19 30 -16 37 3 7 0 16 -6 20 -7 5 -8 2 -3 -6 6 -9
4 -11 -4 -6 -7 5 -10 14 -7 22 3 7 0 16 -6 20 -7 5 -8 2 -3 -6 6 -9 4 -11 -4
-6 -7 5 -10 14 -7 22 3 7 0 16 -6 20 -7 5 -8 2 -3 -7 8 -12 6 -12 -8 0 -20 16
-23 36 -4 25 8 -5 8 -2 -2 9 -16 20 -25 22 -16 5 4 -7 -3 -2 -14 12 -11 14
-19 30 -16 37 2 7 -1 15 -7 19 -7 5 -8 2 -3 -6 5 -9 4 -11 -4 -6 -6 4 -10 15
-9 24 2 10 -3 16 -10 14 -8 -1 -18 10 -24 26 -8 19 -23 33 -45 41 -18 7 -31
17 -28 22 3 5 0 6 -8 4 -7 -3 -33 3 -56 13 -24 11 -38 21 -32 23 6 2 2 10 -10
18 -19 11 -21 11 -16 -4 4 -9 3 -14 -3 -10 -6 3 -10 15 -10 26 0 14 -5 19 -17
17 -10 -2 -17 -10 -15 -17 2 -9 -3 -11 -14 -7 -9 4 -46 14 -82 23 -49 12 -61
18 -46 23 46 17 -108 4 -160 -13z m292 -89 c-5 -15 -14 -25 -19 -22 -5 3 -6
-1 -3 -9 5 -14 -40 -127 -51 -127 -5 0 -212 135 -228 149 -4 4 32 8 80 10 122
4 120 13 -2 11 -55 -1 -104 0 -110 1 -13 4 201 15 281 16 l62 0 -10 -29z m122
-67 c0 -3 -15 8 -33 25 -25 22 -24 21 3 -6 63 -62 162 -150 168 -150 3 0 -7
15 -24 33 l-29 32 37 -34 c21 -19 37 -36 35 -37 -1 -1 -31 0 -67 4 -54 5 -60
7 -35 13 17 4 0 5 -40 3 -49 -2 -62 -1 -45 5 18 7 6 8 -40 5 -46 -3 -58 -1
-40 5 22 8 21 9 -12 8 -21 -1 -38 -6 -38 -11 0 -5 -2 -7 -5 -4 -9 8 16 68 26
62 5 -3 6 1 4 9 -3 7 6 39 20 72 l26 58 45 -44 c24 -24 44 -45 44 -48z m-535
43 c-8 -20 -15 -38 -15 -41 0 -2 -4 -1 -10 2 -6 4 -7 -1 -3 -11 4 -12 3 -15
-5 -10 -8 5 -10 1 -5 -10 5 -13 3 -15 -7 -9 -9 5 -11 4 -6 -4 10 -15 -13 -73
-25 -65 -5 3 -6 -3 -2 -12 4 -11 3 -15 -4 -11 -7 4 -9 0 -7 -10 3 -10 -5 -33
-17 -52 l-21 -34 -21 24 c-12 14 -20 20 -17 14 3 -6 -5 1 -18 15 -12 14 -28
24 -36 22 -7 -1 -20 6 -27 15 -13 17 -13 17 6 3 14 -10 13 -6 -5 13 -20 23
-21 27 -6 21 13 -5 17 -4 12 4 -3 6 -1 14 5 18 8 4 9 3 5 -4 -12 -20 1 -14
101 49 54 34 90 59 81 55 -25 -8 -22 1 3 15 13 7 19 7 15 1 -3 -6 -2 -13 4
-17 5 -3 11 -1 11 4 3 21 4 26 12 39 16 24 17 11 2 -24z m59 14 c-5 -7 -1 -9
9 -5 9 3 19 1 23 -5 5 -7 2 -8 -7 -3 -39 22 16 -19 98 -74 51 -34 98 -60 104
-59 6 2 14 -4 16 -12 4 -13 3 -13 -6 0 -10 14 -16 7 -12 -14 1 -4 -11 -5 -26
-2 -22 5 -25 4 -13 -4 11 -9 7 -10 -20 -5 -23 4 -30 3 -22 -3 18 -12 -22 -23
-58 -16 -20 5 -22 3 -10 -6 12 -9 9 -10 -13 -5 -21 4 -27 3 -21 -6 5 -9 -1
-10 -22 -5 -23 5 -26 4 -14 -5 12 -8 9 -9 -13 -4 -21 4 -27 3 -21 -6 5 -9 -1
-10 -22 -5 -23 5 -26 4 -14 -5 12 -8 9 -9 -13 -4 -17 3 -26 2 -23 -3 3 -6 -3
-12 -13 -15 -15 -3 -18 0 -14 17 4 18 2 18 -11 -4 -20 -33 -20 -19 1 24 9 19
20 33 25 30 4 -3 5 1 3 8 -5 13 65 179 87 205 12 15 31 6 22 -9z m-304 -223
c-3 6 6 -1 20 -15 14 -14 23 -21 20 -15 -3 6 5 -1 17 -15 13 -14 23 -27 23
-30 -1 -3 -22 -28 -48 -55 -26 -28 -40 -41 -32 -30 8 12 -3 3 -24 -19 -22 -23
-33 -32 -26 -21 7 11 -10 -5 -38 -35 -28 -30 -52 -51 -52 -45 0 13 81 299 87
305 3 3 2 -11 -1 -30 l-6 -35 13 30 c8 17 11 35 8 40 -3 6 5 -1 19 -15 14 -14
23 -21 20 -15z m805 19 c77 -8 142 -18 144 -20 2 -2 0 -4 -5 -4 -5 0 -10 -17
-10 -38 l-2 -37 15 43 c8 24 17 42 19 40 4 -4 -89 -299 -100 -317 -6 -9 -12
-7 -23 8 -8 12 -11 26 -8 31 4 6 1 9 -7 8 -7 -2 -12 5 -12 14 1 10 -3 16 -10
15 -6 -1 -10 6 -10 15 1 10 -3 16 -10 15 -6 -1 -10 6 -10 15 1 10 -3 16 -10
15 -6 -1 -10 6 -10 15 1 10 -3 16 -8 15 -6 -1 -13 4 -16 12 -3 9 0 11 9 6 8
-5 11 -4 6 1 -5 5 -14 9 -20 9 -5 0 -12 6 -15 14 -3 9 0 11 8 6 9 -5 11 -4 6
4 -4 6 -12 8 -18 5 -7 -5 -9 -1 -5 9 3 9 1 19 -5 23 -7 5 -8 2 -3 -6 6 -9 4
-11 -4 -6 -7 5 -10 14 -7 22 3 7 0 16 -6 20 -7 5 -8 2 -3 -6 6 -9 4 -11 -4 -6
-7 5 -10 14 -7 22 3 7 0 16 -6 20 -7 5 -8 2 -4 -7 4 -8 -2 -3 -13 11 -27 32
-26 42 2 36 12 -3 85 -13 162 -22z m-253 -56 c-14 -39 -29 -65 -35 -61 -6 3
-7 1 -3 -6 10 -15 -23 -113 -35 -106 -5 4 -6 0 -3 -8 3 -8 -2 -30 -10 -48 -11
-23 -14 -26 -10 -9 6 24 6 24 -9 5 -15 -20 -15 -20 -38 0 -24 20 -24 20 -10 0
8 -11 -1 -4 -20 16 -19 19 -29 28 -24 19 6 -9 -6 0 -25 20 -19 20 -30 29 -25
20 6 -9 -5 0 -22 19 -18 20 -40 35 -49 33 -9 -2 -13 1 -10 6 3 5 -2 16 -12 23
-15 12 -16 12 -7 -1 6 -10 4 -9 -6 2 -9 9 -19 15 -21 12 -3 -2 -11 2 -17 10
-11 13 -9 14 14 10 15 -3 24 -1 21 5 -8 12 38 23 60 14 11 -4 15 -3 11 4 -9
14 35 25 59 16 11 -4 15 -3 11 4 -9 14 30 24 63 17 20 -5 22 -3 10 6 -12 9 -9
10 13 5 17 -3 26 -2 23 4 -8 12 37 23 60 14 11 -4 15 -3 11 5 -7 10 13 19 43
18 13 0 12 -10 -8 -68z m66 42 c7 -12 10 -25 7 -31 -4 -5 -1 -8 7 -7 7 2 12
-5 12 -14 -1 -10 3 -16 10 -15 6 1 10 -6 10 -15 -1 -10 3 -16 10 -15 6 1 10
-6 10 -15 -1 -10 3 -16 10 -15 6 1 10 -6 10 -15 -1 -10 2 -15 7 -13 10 7 32
-32 24 -45 -3 -5 0 -12 6 -16 8 -4 9 -3 5 4 -4 7 -5 12 -3 12 12 0 95 -140 87
-145 -6 -4 -9 -1 -8 7 2 7 -4 12 -12 10 -8 -2 -64 -5 -125 -7 -74 -2 -97 -1
-70 4 31 7 24 8 -28 4 -47 -3 -73 0 -85 9 -13 11 -15 11 -7 -2 6 -12 5 -13 -5
-3 -11 10 -11 20 -1 53 7 25 16 38 23 34 7 -4 8 -3 4 5 -11 16 23 113 36 105
7 -4 8 -2 4 5 -8 12 32 141 43 141 4 0 12 -9 19 -20z m468 -345 c4 -16 3 -17
-5 -5 -7 10 -11 11 -11 3 0 -10 -21 -13 -77 -11 -76 1 -77 1 -23 7 l55 7 -61
4 c-51 4 -61 3 -57 -10 4 -13 4 -13 -6 0 -13 18 -14 43 -2 36 5 -4 7 4 3 16
-4 16 -2 19 8 13 9 -6 11 -4 5 5 -11 17 26 135 37 118 5 -8 6 -1 2 16 -5 19
-3 27 4 22 6 -3 8 1 5 12 -2 10 1 31 8 47 11 29 13 24 60 -115 27 -80 52 -154
55 -165z m-977 90 c-4 -82 -8 -181 -8 -218 l-1 -68 -24 18 c-13 10 -22 21 -20
24 4 7 -64 75 -74 72 -4 0 -14 3 -22 8 -8 4 -11 9 -6 9 6 0 -5 16 -24 35 -18
19 -37 32 -42 29 -4 -3 -11 2 -14 10 -3 9 -10 13 -15 10 -18 -11 -8 3 18 27
l28 24 -20 -25 c-34 -42 61 36 148 123 44 43 81 76 82 75 1 -2 -2 -70 -6 -153z
m101 90 c-7 11 2 4 21 -16 19 -19 30 -28 24 -19 -5 9 6 0 25 -20 19 -20 31
-29 25 -20 -5 9 6 0 25 -20 19 -20 28 -27 20 -16 -9 12 3 6 28 -13 23 -18 42
-34 42 -35 0 -2 -12 -16 -26 -32 -15 -16 -23 -23 -19 -15 6 10 0 9 -22 -4 -36
-21 -84 -59 -63 -50 8 4 6 0 -4 -9 -10 -8 -23 -13 -29 -9 -6 3 -7 1 -4 -4 4
-6 0 -14 -9 -17 -10 -4 -13 -2 -9 7 4 6 -3 1 -15 -13 -12 -14 -19 -18 -15 -10
4 8 -3 4 -15 -10 -12 -14 -19 -18 -15 -10 4 8 -2 4 -13 -9 l-19 -23 -2 73 c-1
40 -4 76 -7 79 -3 2 -4 -30 -3 -73 1 -43 -1 -81 -6 -85 -8 -8 2 336 12 403 l6
40 40 -45 c22 -25 34 -36 27 -25z m-265 -275 c-16 20 2 4 40 -35 39 -39 57
-56 41 -38 -43 48 -28 40 23 -11 30 -31 39 -46 30 -51 -7 -5 -10 -4 -5 3 3 6
3 13 -2 16 -4 2 -14 -4 -21 -16 -9 -15 -10 -18 0 -13 8 5 10 4 5 -4 -4 -6 -11
-9 -16 -6 -11 7 -95 -53 -95 -67 0 -6 -5 -13 -12 -15 -7 -3 -16 18 -23 54 -7
32 -23 107 -36 168 l-23 109 62 -65 c34 -36 49 -49 32 -29z m550 80 c-4 -6 9
-10 32 -9 38 1 38 1 8 10 -31 8 -9 7 188 -7 63 -4 87 -9 87 -19 0 -8 -5 -17
-10 -20 -6 -4 -8 -11 -4 -16 7 -12 -15 -41 -26 -34 -10 6 -24 -14 -25 -35 0
-8 -5 -14 -11 -13 -17 3 -132 -139 -126 -156 2 -8 0 -11 -6 -8 -5 4 -16 -1
-23 -10 -12 -14 -12 -16 1 -8 13 8 13 7 1 -9 -14 -16 -16 -14 -28 26 -7 24
-11 54 -8 68 5 20 3 22 -6 10 -8 -12 -9 -7 -5 20 4 21 3 30 -3 22 -11 -18 -34
72 -26 101 5 18 4 19 -5 7 -9 -12 -10 -8 -6 20 4 21 3 30 -3 22 -6 -11 -9 -9
-13 6 -3 11 -1 25 5 31 14 14 20 14 12 1z m-23 -80 c10 -36 16 -76 13 -90 -3
-15 -2 -20 3 -12 11 16 35 -77 26 -104 -4 -12 -3 -15 3 -7 6 9 12 0 20 -27 11
-44 8 -53 -7 -17 -6 15 -9 17 -9 6 -1 -14 -19 -10 -111 24 -60 23 -104 44 -99
48 16 9 -135 61 -156 53 -13 -5 -16 -3 -13 7 3 8 12 13 21 11 8 -1 19 3 23 9
5 8 3 9 -6 4 -8 -5 -11 -4 -6 3 4 6 13 9 20 6 8 -3 17 0 22 7 5 8 3 10 -7 5
-20 -11 22 23 45 36 14 7 17 7 11 -2 -6 -9 -2 -9 14 -1 11 7 21 14 21 17 0 3
-5 2 -12 -2 -7 -4 -8 -3 -4 5 4 6 11 9 16 6 8 -5 120 62 120 72 0 2 -5 1 -12
-3 -7 -4 -8 -3 -4 5 5 7 17 11 29 9 16 -2 24 -17 39 -68z m433 53 c-5 -15 -4
-16 6 -5 8 7 39 12 84 11 57 -1 63 -3 35 -9 l-35 -7 43 -2 c27 0 41 3 37 9 -3
6 -1 10 4 10 15 0 15 0 -15 -69 -15 -35 -31 -58 -37 -54 -6 4 -7 1 -2 -6 9
-15 -24 -93 -36 -85 -5 3 -6 -3 -2 -12 5 -13 3 -15 -7 -9 -9 5 -11 4 -6 -4 10
-16 -13 -73 -26 -65 -6 4 -8 25 -5 48 5 31 4 36 -4 21 -7 -15 -8 -11 -4 20 2
24 1 35 -4 27 -11 -19 -24 47 -16 85 5 24 4 25 -5 8 -8 -16 -9 -12 -5 20 3 28
2 35 -5 25 -8 -12 -10 -11 -10 7 0 24 9 53 17 53 3 0 2 -8 -2 -17z m-58 -28
c-4 -8 -2 -17 3 -20 6 -4 10 4 11 17 0 13 16 -44 35 -127 18 -82 33 -159 32
-170 0 -13 -3 -9 -8 10 l-8 30 -1 -27 -1 -28 -166 0 c-109 0 -163 3 -159 10 4
6 11 8 16 5 5 -3 6 0 4 7 -3 8 7 25 22 38 l28 25 -20 -25 -20 -25 22 18 c12
11 20 24 17 31 -3 7 8 23 23 36 l28 25 -25 -30 -25 -30 27 24 c15 13 24 29 22
35 -3 7 6 21 18 32 l23 19 -20 -25 -20 -25 22 18 c12 11 20 24 17 31 -3 7 8
23 23 36 l28 25 -25 -30 -25 -30 27 24 c15 13 25 28 22 33 -3 5 7 24 23 43 31
37 38 42 30 20z m-733 -213 c1 -17 5 -28 10 -24 5 3 7 -5 4 -16 -4 -12 -2 -20
2 -17 7 5 84 -205 77 -211 -2 -2 -16 8 -32 22 -17 14 -24 23 -17 19 33 -17 3
8 -83 69 -98 69 -125 99 -103 112 7 5 9 2 3 -7 -4 -8 3 -3 16 11 13 14 20 19
14 11 -6 -9 4 -5 23 8 17 12 32 25 32 28 0 3 -8 -1 -17 -8 -16 -13 -17 -12 -5
3 8 10 20 14 30 11 9 -3 14 -3 10 2 -4 4 -3 14 4 22 15 19 31 2 32 -35z m294
-58 c57 -21 98 -40 92 -42 -5 -2 -10 -8 -10 -14 0 -6 7 -8 15 -4 22 8 18 -2
-6 -15 -15 -8 -19 -8 -15 0 12 19 1 13 -106 -51 -96 -57 -151 -95 -100 -69 12
6 22 9 22 7 0 -3 -13 -12 -29 -21 -32 -16 -48 -7 -37 21 3 8 2 13 -3 10 -5 -3
-31 59 -58 138 l-49 144 91 -33 c49 -18 136 -50 193 -71z m162 -116 c6 -21 9
-48 5 -60 -4 -16 -3 -19 3 -10 7 10 12 1 20 -30 8 -29 8 -46 1 -53 -7 -7 -8
-4 -3 8 5 15 3 16 -21 7 -14 -5 -43 -10 -63 -9 -33 1 -34 2 -12 9 16 5 -1 7
-45 4 -52 -2 -62 -1 -40 5 22 7 11 8 -40 5 -49 -2 -62 -1 -45 5 16 6 19 9 8
10 -27 2 -30 19 -6 31 22 11 22 10 4 -4 -23 -18 -14 -21 15 -5 11 5 16 15 13
21 -4 7 -3 8 5 4 10 -7 181 88 181 100 0 3 -5 2 -12 -2 -7 -5 -8 -3 -3 5 10
17 20 4 35 -41z m319 36 c-6 -8 -15 -11 -20 -8 -5 3 -54 -29 -109 -71 -88 -67
-103 -75 -117 -63 -15 11 -16 11 -9 -7 4 -13 4 -16 -2 -10 -17 18 -43 124 -36
150 l6 26 150 -2 c126 -1 147 -3 137 -15z"/>
<path d="M398 823 c-3 -4 -5 -75 -6 -158 -1 -140 -10 -280 -18 -273 -1 2 1 81
6 175 4 94 5 185 1 203 -3 17 -7 -26 -8 -97 -3 -171 -13 -304 -23 -298 -5 3
-12 0 -16 -6 -4 -8 -3 -9 4 -5 25 15 10 -12 -25 -45 -20 -18 -33 -28 -29 -21
10 17 3 15 -39 -9 -27 -16 -47 -20 -80 -16 -29 3 -42 1 -38 -6 4 -6 1 -7 -6
-3 -7 5 -10 11 -7 14 3 3 -2 14 -11 25 -15 16 -18 38 -18 126 0 100 2 111 32
171 17 36 30 66 28 68 -2 2 -18 -27 -36 -63 -27 -55 -34 -83 -40 -163 l-7 -97
2 97 c2 89 5 102 37 165 28 55 38 67 56 65 12 -2 25 2 29 9 5 8 3 10 -7 4 -8
-5 -10 -4 -6 0 20 22 33 11 36 -29 2 -45 28 -146 41 -159 4 -5 17 -4 29 2 18
10 21 21 21 87 0 78 -12 116 -54 164 l-21 25 24 -20 c39 -33 55 -76 62 -160
l6 -80 1 73 c2 55 -3 82 -18 111 -22 45 -73 91 -100 91 -18 0 -92 -29 -75 -30
5 0 0 -7 -12 -15 -21 -14 -77 -104 -70 -112 2 -2 16 19 31 47 15 27 31 52 37
55 5 4 -3 -15 -19 -42 -67 -114 -94 -217 -90 -343 2 -92 3 -96 34 -127 18 -18
38 -33 45 -33 8 0 5 6 -7 15 -18 14 -17 14 9 5 16 -5 49 -11 75 -12 l47 -1
-55 -7 -55 -7 48 -1 c51 -2 122 21 113 37 -4 5 -1 13 5 17 8 4 9 3 5 -4 -14
-22 6 -12 54 28 l47 39 22 -23 c23 -24 47 -30 49 -12 1 6 6 41 11 77 8 69 29
129 45 129 4 0 1 -11 -8 -25 -32 -48 6 -155 55 -155 18 0 32 15 35 37 1 6 7
19 14 30 10 15 10 14 5 -10 -7 -34 8 -57 39 -58 17 -1 18 -2 3 -6 -10 -3 -26
1 -35 9 -15 12 -16 11 -3 -4 32 -42 86 1 61 48 -8 15 -11 43 -7 78 4 45 2 57
-14 72 -25 23 -54 3 -38 -27 7 -14 5 -27 -6 -49 -9 -16 -17 -30 -18 -30 -8 0
-6 90 2 95 14 8 -65 78 -81 72 -9 -4 -8 -6 3 -6 8 -1 26 -12 38 -25 19 -20 22
-32 18 -87 l-3 -64 -2 66 c-1 49 -7 70 -19 81 -24 20 -61 29 -70 16 -3 -7 -1
-8 5 -4 17 10 15 1 -3 -14 -13 -11 -14 -2 -8 66 4 44 7 108 7 143 1 60 -1 65
-31 88 -17 13 -33 20 -35 16z"/>
<path d="M750 800 c12 -8 11 -10 -7 -10 -20 0 -23 -6 -25 -42 0 -24 -2 -54 -4
-68 -1 -14 -4 -97 -5 -185 -3 -135 -1 -165 13 -194 14 -26 14 -30 3 -21 -8 7
-15 20 -16 29 0 11 -2 12 -6 3 -3 -7 2 -21 12 -32 13 -14 23 -16 46 -10 34 10
39 3 7 -10 -17 -6 -18 -9 -6 -9 15 -1 79 44 86 62 2 4 8 5 13 2 5 -3 19 -1 31
5 22 11 22 10 4 -4 -11 -9 -24 -16 -30 -16 -5 0 -7 -2 -4 -5 11 -11 58 19 58
36 0 29 17 31 34 4 9 -13 16 -28 16 -32 0 -4 -9 6 -20 22 -11 17 -20 25 -20
19 0 -20 49 -64 70 -64 12 0 33 9 47 20 14 11 21 20 16 20 -6 0 -16 -7 -23
-15 -7 -8 -24 -14 -39 -14 l-26 2 27 4 c15 2 37 16 48 30 15 20 20 22 21 9 3
-33 4 -37 19 -46 24 -16 36 -11 14 5 -16 13 -16 14 -1 9 15 -5 17 1 17 49 0
60 7 90 20 82 5 -3 11 -1 15 5 12 20 25 9 26 -22 l1 -33 9 39 c10 43 6 92 -7
90 -5 -1 -24 -4 -42 -8 -25 -4 -31 -3 -26 7 4 6 -2 3 -14 -7 -12 -11 -22 -24
-22 -29 0 -6 7 -2 15 9 13 17 13 16 2 -14 l-12 -34 -9 31 c-5 18 -16 31 -25
31 -13 0 -13 -2 -2 -9 11 -7 11 -9 0 -13 -12 -4 -11 -13 3 -52 10 -26 13 -44
7 -40 -6 3 -19 -2 -30 -12 -10 -9 -22 -14 -25 -11 -9 9 -9 58 0 82 5 12 2 11
-8 -5 -9 -15 -14 -37 -11 -55 5 -29 5 -29 -5 -5 -9 19 -6 35 15 83 21 50 25
73 25 161 0 74 -4 107 -15 122 -8 10 -14 24 -15 29 0 6 9 -3 20 -20 17 -25 20
-47 20 -133 0 -57 -5 -113 -11 -124 -8 -16 -7 -29 7 -59 9 -22 19 -37 21 -35
3 2 -2 17 -10 33 -8 17 -11 37 -6 53 4 14 7 72 8 130 1 89 -2 110 -19 135 -11
17 -24 31 -30 31 -5 1 -16 2 -22 3 -9 1 -9 4 2 12 13 9 13 10 0 7 -23 -7 -49
-122 -49 -225 -1 -77 -4 -93 -17 -93 -8 0 -13 -4 -10 -9 3 -5 -1 -12 -10 -15
-8 -3 -12 -2 -9 4 3 6 0 10 -7 10 -14 0 -78 -60 -78 -73 0 -4 14 7 31 25 l31
33 -26 -33 c-32 -41 -33 -61 -4 -98 13 -15 17 -25 10 -20 -7 4 -12 2 -12 -8 0
-8 -5 -18 -12 -22 -7 -4 -8 -3 -4 5 4 6 3 18 -3 25 -6 7 -8 22 -4 31 4 13 3
16 -5 11 -7 -4 -12 -15 -12 -24 -1 -14 -3 -14 -13 3 -18 29 -16 301 3 318 7 6
10 7 7 2 -3 -6 -8 -57 -12 -113 -7 -107 1 -196 16 -186 13 8 11 44 -2 44 -11
0 -7 134 7 210 3 19 7 55 9 80 4 70 4 72 18 65 6 -4 -3 7 -21 24 -18 17 -38
31 -45 31 -8 0 -7 -4 3 -10z"/>
<path d="M2194 801 c4 -7 -1 -11 -12 -11 -17 0 -20 -10 -26 -79 -4 -43 -7
-129 -7 -191 0 -62 -2 -110 -5 -107 -7 6 -7 195 0 301 5 77 4 78 -4 21 -24
-157 -14 -347 22 -434 6 -14 12 -30 12 -36 2 -24 47 -15 76 14 20 19 37 28 48
25 15 -5 15 -4 2 6 -13 9 -12 10 5 8 11 -1 26 1 33 6 8 5 20 -2 34 -19 14 -19
28 -25 47 -23 14 2 26 8 26 15 0 6 4 15 9 20 5 5 6 3 2 -5 -4 -6 -3 -12 2 -12
12 0 38 38 45 65 4 19 5 19 6 -1 0 -11 -5 -26 -11 -33 -10 -11 -10 -12 -1 -7
7 4 24 -6 40 -24 18 -20 34 -29 43 -25 17 6 24 41 11 50 -5 2 -6 27 -3 54 7
73 -3 101 -34 101 -17 0 -23 4 -18 13 6 9 4 9 -7 1 -8 -5 -20 -9 -26 -8 -7 1
-19 2 -25 3 -9 1 -9 4 2 12 13 9 13 10 0 6 -8 -2 -17 -14 -18 -28 -2 -13 -8
-28 -12 -33 -5 -5 -6 2 -3 15 5 23 5 23 -9 5 -8 -10 -15 -39 -17 -64 -3 -68
-12 -66 -10 1 1 32 -1 61 -5 65 -4 4 -24 8 -43 8 -22 1 -30 -1 -22 -6 7 -5 17
-6 23 -3 5 3 6 1 2 -5 -4 -7 -17 -7 -42 0 -20 5 -37 8 -37 6 -1 -2 -12 -18
-25 -36 -26 -36 -27 -102 -3 -110 9 -3 11 0 6 8 -5 9 -4 11 3 6 9 -5 7 -14 -4
-32 -20 -29 -24 -30 -17 -4 3 12 0 20 -7 20 -7 0 -10 7 -6 18 5 15 5 15 -8 -1
-13 -17 -15 -14 -26 38 -12 56 -6 263 8 277 4 4 6 -14 4 -40 -2 -37 0 -43 8
-29 6 9 8 22 5 28 -4 5 -1 16 5 25 8 9 10 30 7 55 -6 48 0 72 17 62 6 -3 2 4
-9 16 -22 25 -62 51 -51 32z"/>
<path d="M2849 605 c-3 -77 -3 -83 -12 -91 -4 -5 -5 -1 -2 7 5 13 0 15 -27 11
-32 -5 -32 -6 -8 -13 25 -7 25 -7 2 -8 -17 -1 -22 -6 -20 -18 2 -10 11 -17 20
-17 22 2 30 -62 9 -79 -12 -9 -13 -9 -7 1 8 14 5 15 -18 6 -9 -3 -14 -10 -11
-14 2 -4 -4 -15 -15 -25 -11 -10 -20 -15 -20 -10 0 4 -7 2 -16 -5 -12 -11 -15
-11 -12 0 2 7 -3 15 -11 18 -10 3 -12 0 -8 -12 9 -24 0 -20 -14 7 -6 12 -8 19
-4 15 4 -4 17 -3 28 3 15 8 18 8 12 -1 -5 -8 -3 -11 6 -8 8 3 13 10 12 16 -1
5 7 18 17 27 11 10 20 30 20 45 0 32 -33 65 -55 56 -9 -3 -13 -2 -10 4 9 15
26 12 49 -7 20 -17 20 -16 0 6 -16 17 -28 21 -43 16 -26 -8 -91 -63 -91 -77 0
-5 12 4 26 19 25 28 25 27 -2 -10 -24 -33 -26 -43 -21 -90 6 -50 31 -87 60
-87 6 0 2 7 -9 16 -18 14 -18 15 5 4 13 -7 38 -9 55 -6 22 4 27 3 16 -4 -9 -6
-10 -10 -3 -10 7 0 22 10 35 23 17 15 18 18 3 7 -11 -8 -4 2 15 23 l35 38 6
-40 c3 -21 9 -45 15 -53 5 -8 1 -5 -8 5 -10 11 -18 30 -18 44 0 13 -4 22 -9
18 -15 -9 8 -63 36 -85 32 -25 45 -25 74 1 13 11 17 17 9 13 -13 -7 -13 -5 -1
9 15 19 26 23 15 6 -4 -7 -1 -10 7 -7 8 3 13 11 12 17 -2 6 2 10 8 8 6 -1 14
4 17 12 3 9 0 11 -7 6 -9 -5 -9 -1 1 14 10 16 10 23 0 33 -10 10 -17 7 -35
-12 l-22 -24 25 19 25 20 -24 -28 c-25 -27 -38 -36 -26 -16 4 6 0 9 -11 7 -16
-3 -19 5 -22 55 -3 54 -2 57 20 58 21 0 22 1 3 8 -16 7 -13 9 18 15 20 4 41 5
45 2 4 -2 9 4 9 15 2 16 -5 19 -45 20 -26 1 -49 1 -52 1 -3 0 -3 26 -2 59 3
40 0 59 -8 59 -6 0 -9 4 -6 8 2 4 -4 8 -15 8 -16 0 -19 -8 -20 -51z"/>
<path d="M1252 513 c-23 -15 -42 -32 -42 -37 0 -5 12 1 27 15 23 20 22 18 -5
-14 -33 -38 -37 -60 -26 -128 5 -31 13 -40 44 -54 31 -14 44 -15 73 -6 19 7
43 22 53 34 19 21 19 21 -1 7 l-20 -15 20 24 c20 23 20 23 23 2 2 -11 8 -21
13 -21 6 0 7 -4 4 -10 -12 -19 12 -10 31 12 19 22 19 22 -1 8 -19 -15 -19 -14
-2 10 9 13 17 32 17 40 0 9 7 25 16 36 14 18 15 16 10 -26 -4 -30 -1 -54 9
-73 8 -15 10 -25 4 -22 -5 4 -16 21 -24 38 -11 25 -13 26 -9 7 6 -29 51 -73
68 -67 7 2 10 31 8 88 -4 108 -8 119 -38 119 -17 0 -23 4 -18 12 5 7 3 8 -7 2
-8 -5 -24 -9 -37 -9 -14 0 -27 -9 -35 -24 -16 -31 -31 -32 -35 -1 -2 14 -13
35 -24 47 -16 17 -25 20 -45 12 -35 -13 -42 -10 -13 6 14 8 20 14 15 15 -6 0
-30 -12 -53 -27z"/>
<path d="M1772 512 c14 -6 9 -10 -20 -19 -33 -10 -35 -10 -18 3 23 16 13 19
-15 3 -11 -5 -17 -14 -14 -19 3 -5 0 -12 -6 -16 -8 -4 -9 -3 -5 4 14 24 -13
11 -34 -15 -20 -26 -22 -50 -2 -46 5 1 16 -5 24 -14 11 -14 11 -16 -2 -8 -12
7 -12 4 1 -11 12 -14 14 -25 8 -42 -5 -13 -13 -21 -19 -17 -6 4 -7 -1 -3 -10
5 -13 7 -14 14 -3 6 9 9 7 9 -8 0 -12 7 -25 16 -28 26 -10 29 -7 8 9 -15 12
-16 14 -2 9 10 -3 31 1 48 9 19 10 28 11 24 4 -4 -7 7 1 24 17 18 17 32 34 32
39 0 5 -8 1 -17 -10 -10 -10 -15 -14 -10 -9 4 6 7 19 7 31 0 12 -3 25 -7 31
-5 5 0 1 10 -9 9 -11 17 -15 17 -10 0 20 -36 42 -58 36 -12 -3 -30 -2 -39 2
-10 5 -22 7 -28 6 -5 -1 -3 5 5 13 10 10 24 13 38 9 18 -4 20 -8 10 -14 -10
-7 -10 -9 3 -9 15 0 37 20 54 49 5 9 4 12 -3 7 -8 -4 -16 3 -22 18 -5 15 -17
26 -27 25 -17 0 -17 -1 -1 -7z"/>
<path d="M1974 495 c-4 -8 -10 -13 -14 -10 -13 8 -19 -35 -9 -62 5 -13 8 -113
7 -221 l-2 -197 -7 215 c-8 237 -9 251 -22 243 -5 -3 -5 -12 0 -22 4 -9 10
-110 13 -225 l5 -209 25 -4 c20 -2 30 4 43 26 21 35 22 67 3 74 -11 4 -14 31
-13 119 l0 113 7 -100 6 -100 2 85 2 86 34 12 c19 7 40 20 48 29 11 14 9 14
-14 -1 -38 -25 -35 -15 3 13 18 13 29 19 25 13 -3 -6 -2 -13 4 -17 5 -3 10
-14 10 -24 0 -9 7 -26 15 -37 11 -14 10 -6 -4 37 -10 30 -22 74 -26 96 -9 54
-25 67 -88 66 -43 -1 -47 0 -22 7 l30 8 -28 1 c-16 1 -30 -5 -33 -14z"/>
</g>
</svg>
